<svg xmlns="http://www.w3.org/2000/svg" xmlns:xlink="http://www.w3.org/1999/xlink" width="195" height="30" viewBox="0 0 195 30">
    <defs>
        <path id="prefix__a" d="M0.74 0.368L11.696 0.368 11.696 1.979 0.74 1.979z"/>
    </defs>
    <g fill="none" fill-rule="evenodd">
        <g>
            <path fill="#08BF91" d="M9.37 0S2.671 8.714.582 12.675c-2.16 3.96 2.377 9.074 2.377 9.074s7.13-10.874 7.994-12.099C13.402 5.977 9.369 0 9.369 0m6.41 7.994S9.08 16.708 6.993 20.669c-2.16 3.96 2.376 9.074 2.376 9.074s7.058-10.875 7.922-12.099c2.449-3.673-1.512-9.65-1.512-9.65" transform="translate(117)"/>
            <g>
                <path fill="#274A59" d="M1.956 26.842c-.402 0-.887-.161-1.29-.322-.08-.081-.16-.081-.16-.242 0-.08 0-.161.08-.242.08-.08.162-.16.242-.16.08 0 .08 0 .162.08.321.241.644.322.966.322.563 0 .806-.322.806-.645 0-.402-.484-.564-.967-.805-.644-.242-1.208-.564-1.208-1.209 0-.725.564-1.208 1.45-1.208.322 0 .725.08 1.046.242.082.08.162.08.162.16 0 .081 0 .162-.08.242-.082.08-.161.08-.243.08-.08 0-.08 0-.16-.08-.243-.16-.484-.241-.725-.241-.565 0-.726.322-.726.564 0 .402.403.564.887.725h.08c.565.241 1.208.483 1.208 1.289.082.966-.564 1.45-1.53 1.45M7.676 26.761c-.242 0-.403-.161-.403-.403v-2.175c0-.805-.242-1.128-.805-1.128-.403 0-.726.242-1.128.645v2.658c0 .242-.161.403-.403.403-.242 0-.403-.161-.403-.403v-5.397c0-.242.161-.403.403-.403.242 0 .403.161.403.403v2.175l.08-.08c.322-.323.806-.645 1.37-.645.886 0 1.289.564 1.289 1.692v2.255c0 .161-.161.403-.403.403M9.851 26.761c-.241 0-.403-.161-.403-.403v-3.383c0-.242.162-.403.403-.403.242 0 .403.161.403.403v3.383c0 .161-.161.403-.403.403m0-5.156c-.322 0-.484-.161-.484-.483 0-.322.243-.484.484-.484.322 0 .564.162.564.484 0 .241-.242.483-.564.483M11.784 28.534c-.08 0-.16-.08-.241-.161-.08-.081-.08-.162-.08-.242 0-.161.161-.242.321-.242.485 0 .806-.322.967-.805l.081-.323-1.45-3.706c-.081-.08 0-.241 0-.322.08-.08.16-.16.322-.16s.323.08.323.24l.724 1.854.161.483.242.725h.161l.323-1.208.563-1.934c.082-.16.161-.241.322-.241.081 0 .242.08.324.16.08.081.08.242.08.323l-1.37 4.028c-.403 1.047-.886 1.53-1.691 1.53h-.082M16.78 26.842c-.725 0-1.21-.484-1.21-1.209 0-.886.726-1.37 2.5-1.53h.079v-.08c0-.645-.322-.968-.885-.968-.324 0-.646.08-.968.242h-.161c-.08 0-.242-.08-.242-.161 0-.08-.08-.161 0-.242 0-.08.08-.16.162-.16.483-.243.966-.404 1.45-.404.967 0 1.53.564 1.53 1.773v2.175c0 .161-.16.322-.322.322-.161 0-.322-.161-.322-.322v-.242h-.08c-.645.564-1.047.806-1.532.806zm1.29-2.256c-1.21.161-1.774.483-1.774 1.047 0 .403.242.645.725.645.322 0 .645-.161 1.048-.484v-1.208zM23.386 26.761c-.242 0-.403-.161-.403-.403v-2.175c0-.805-.242-1.128-.806-1.128-.403 0-.725.242-1.128.645v2.658c0 .242-.16.403-.402.403-.242 0-.403-.161-.403-.403v-3.464c0-.161.16-.322.322-.322.161 0 .322.161.322.322v.322h.08c.404-.322.806-.725 1.37-.725.887 0 1.29.564 1.29 1.692v2.256c.16.08 0 .322-.242.322M26.044 26.842c-.564 0-.806-.322-.806-1.048v-4.833c0-.242.162-.403.403-.403.242 0 .403.161.403.403v4.833c0 .162 0 .242.081.323 0 .08.08.08.16.08.081 0 .162.08.162.161 0 .162 0 .242-.08.323-.081.08-.162.16-.323.16M29.267 26.842c-.967 0-2.014-.725-2.014-2.175 0-1.45.966-2.256 2.014-2.256.966 0 2.014.725 2.014 2.256-.08 1.37-1.048 2.175-2.014 2.175m0-3.787c-.725 0-1.127.645-1.127 1.612 0 .966.482 1.53 1.127 1.53.725 0 1.127-.644 1.127-1.53 0-.967-.483-1.612-1.127-1.612M33.617 26.842c-.887 0-1.29-.564-1.29-1.611v-2.256c0-.242.162-.403.403-.403.243 0 .403.161.403.403v2.175c0 .725.243 1.128.806 1.128.403 0 .726-.161 1.048-.645v-2.578c0-.241.16-.402.403-.402.241 0 .402.16.402.402v3.465c0 .16-.16.322-.322.322-.16 0-.323-.161-.323-.322v-.323h-.08c-.564.403-.966.645-1.45.645M37.726 26.842c-.322 0-.564-.242-.564-.564 0-.322.242-.564.564-.564.322 0 .564.242.564.564-.08.322-.323.564-.564.564M41.19 26.842c-1.209 0-2.014-.886-2.014-2.175 0-1.531 1.048-2.256 2.095-2.256.322 0 .644.08.885.242.082.08.162.08.162.16 0 .081 0 .162-.08.242-.082.08-.161.161-.243.161-.08 0-.08 0-.16-.08-.161-.08-.323-.161-.564-.161-.726 0-1.29.644-1.29 1.611s.484 1.53 1.29 1.53c.24 0 .483-.08.724-.16.082 0 .082-.08.161-.08.082 0 .242.08.242.16.082.161.082.322-.08.403-.403.242-.725.403-1.128.403M44.976 26.842c-.966 0-2.014-.725-2.014-2.175 0-1.45.967-2.256 2.014-2.256.967 0 2.014.725 2.014 2.256 0 1.37-.966 2.175-2.014 2.175m0-3.787c-.724 0-1.127.645-1.127 1.612 0 .966.483 1.53 1.127 1.53.725 0 1.128-.644 1.128-1.53.08-.967-.403-1.612-1.128-1.612M53.758 26.761c-.242 0-.403-.161-.403-.403v-2.175c0-.725-.242-1.128-.805-1.128-.323 0-.645.161-1.048.645v2.658c0 .242-.16.403-.403.403-.242 0-.402-.161-.402-.403v-2.175c0-.725-.243-1.128-.806-1.128-.322 0-.645.161-1.048.645v2.658c0 .242-.16.403-.403.403-.24 0-.403-.161-.403-.403v-3.464c0-.161.162-.322.323-.322s.322.161.322.322v.322h.081c.483-.483.885-.725 1.288-.725.565 0 .968.242 1.129.725v.081l.08-.08c.484-.565.887-.806 1.37-.806.806 0 1.29.564 1.29 1.692v2.255c.24.161.08.403-.162.403M27.494 7.91c-.483 0-.886-.403-.886-.887 0-.483.403-.886.886-.886h5.559c.483 0 .886.403.886.886 0 .484-.403.887-.886.887h-5.559zM26.044 17.819c-.483 0-.886-.403-.886-.887 0-.483.403-.886.886-.886h8.379c.483 0 .886.403.886.886 0 .484-.403.887-.886.887h-8.379zM19.519 14.757c-.484 0-.887-.402-.887-.886 0-.483.403-.886.887-.886h2.335c.485 0 .887.403.887.886 0 .484-.402.886-.887.886H19.52zM22.58 10.165V3.64h-2.82c-.483 0-.886-.403-.886-.887 0-.483.403-.886.886-.886h3.787c.483 0 .886.403.886.886v7.412H22.58z" transform="translate(117) translate(22.941 .882)"/>
                <path fill="#274A59" d="M21.694 18.141c-.484 0-.887-.403-.887-.886s.403-.886.887-.886h1.369v-4.914h-2.82c-.482 0-.885-.403-.885-.887V5.896c0-.484.403-.887.885-.887.484 0 .887.403.887.887v3.706h2.82c.482 0 .885.402.885.886v6.767c0 .483-.403.886-.885.886h-2.256zM34.745 7.023c-.242 0-.484-.08-.645-.241l-3.867-3.867L26.447 6.7c-.161.161-.403.242-.645.242-.24 0-.482-.08-.643-.242-.324-.322-.324-.967 0-1.289l4.51-4.511c.161-.162.403-.242.645-.242s.484.08.645.242l4.591 4.592c.161.16.243.402.243.644s-.082.484-.243.645c-.321.16-.563.241-.805.241M27.897 14.999c-.403 0-.806-.322-.886-.725l-.886-3.464c-.081-.242 0-.484.08-.725.08-.242.323-.403.565-.403h.24c.403 0 .806.322.887.725l.887 3.464c.161.483-.162.967-.645 1.128h-.242M30.556 14.032c-.484 0-.806-.322-.887-.725l-.644-3.544c-.08-.242 0-.484.162-.725.16-.242.32-.323.563-.403h.16c.485 0 .806.322.888.725l.644 3.545c.08.241 0 .483-.162.725-.16.241-.321.322-.564.402h-.16M31.12 16.288l1.933-6.606c.08-.403.483-.645.886-.645h.243c.241.08.402.242.563.484.081.241.16.483.081.725l-1.934 6.606-1.773-.564zM1.392 13.468c-.484 0-.887-.402-.887-.886 0-.483.403-.886.887-.886H15.33c.482 0 .885.403.885.886 0 .484-.403.886-.885.886H1.392zM15.41 7.023c-.484 0-.887-.402-.887-.886V4.365H2.36v1.772c0 .484-.403.886-.887.886-.482 0-.885-.402-.885-.886V3.398c0-.483.403-.886.885-.886H15.41c.484 0 .887.403.887.886v2.74c0 .483-.403.885-.887.885" transform="translate(117) translate(22.941 .882)"/>
                <path fill="#274A59" d="M9.287 4.204c-.322 0-.644-.161-.805-.403L7.434 2.109c-.16-.242-.16-.483-.16-.725.08-.242.16-.483.402-.564.161-.08.322-.161.483-.161.323 0 .645.161.806.403l1.047 1.691c.161.242.161.484.161.726-.08.241-.16.483-.402.564-.162.16-.323.16-.484.16M15.49 17.98c-.16 0-.241 0-.402-.08l-4.27-1.934c-.242-.08-.403-.322-.483-.484-.08-.241-.08-.483 0-.725.16-.322.483-.564.805-.564.161 0 .241 0 .403.081l4.27 1.934c.242.08.402.322.483.483.08.242.08.483 0 .725-.081.322-.402.564-.805.564M7.917 8.232c-.16 0-.241 0-.402-.08L4.212 6.62c-.241-.081-.403-.323-.484-.484-.08-.242-.08-.483 0-.725.161-.322.484-.564.806-.564.161 0 .242 0 .403.08L8.24 6.46c.483.242.644.725.483 1.209-.161.403-.483.564-.806.564M6.629 11.454c-.161 0-.242 0-.403-.08L2.519 9.682c-.24-.08-.403-.322-.482-.483-.08-.242-.08-.484 0-.726.16-.322.482-.563.805-.563.161 0 .242 0 .403.08L6.95 9.682c.243.08.403.322.484.483.081.242.081.484 0 .725-.16.323-.484.564-.805.564" transform="translate(117) translate(22.941 .882)"/>
                <path fill="#274A59" d="M1.554 18.141c-.485 0-.806-.322-.887-.805-.08-.484.241-.967.725-1.128 1.289-.242 4.431-.886 5.317-1.29 1.773-.644 2.82-2.255 2.82-4.027V5.976c0-.483.402-.967.967-.967.483 0 .967.403.967.967v4.915c0 2.658-1.532 4.833-4.028 5.8-1.048.403-3.949 1.047-5.64 1.37-.16.08-.16.08-.241.08" transform="translate(117) translate(22.941 .882)"/>
                <g transform="translate(117) translate(22.941 .882) translate(42.545 4.021)">
                    <mask id="prefix__b" fill="#fff">
                        <use xlink:href="#prefix__a"/>
                    </mask>
                    <path fill="#274A59" d="M1.546 1.98c-.485 0-.806-.403-.806-.806 0-.484.403-.806.806-.806h9.345c.483 0 .806.403.806.806 0 .483-.403.805-.806.805H1.546z" mask="url(#prefix__b)"/>
                </g>
                <path fill="#274A59" d="M48.683 9.199c-.485 0-.806-.403-.806-.806V1.948c0-.483.403-.806.806-.806.402 0 .805.403.805.806v6.445c.08.403-.322.806-.805.806M51.583 4.123c-.162 0-.323-.08-.484-.161-.16-.161-.322-.322-.322-.564 0-.242 0-.403.161-.645l.725-1.047c.161-.242.403-.322.645-.322.16 0 .322.08.483.161.161.161.322.322.322.564 0 .242 0 .403-.16.644l-.726 1.048c-.08.16-.322.322-.644.322" transform="translate(117) translate(22.941 .882)"/>
                <path fill="#274A59" d="M53.033 9.762c-.162 0-.322-.08-.484-.16l-3.142-2.418c-.16-.16-.321-.322-.321-.564 0-.241 0-.402.16-.644.161-.242.403-.322.645-.322.16 0 .322.08.483.16l3.143 2.418c.16.16.321.322.321.564 0 .241 0 .402-.16.644-.081.242-.323.322-.645.322M45.782 4.123c-.242 0-.483-.161-.645-.322l-.725-1.048c-.16-.16-.16-.402-.16-.644s.16-.403.321-.564c.162-.08.323-.161.485-.161.24 0 .482.161.643.322l.725 1.047c.162.162.162.403.162.645s-.162.403-.322.564c-.081.08-.242.161-.484.161M44.412 9.762c-.241 0-.483-.08-.644-.322-.161-.161-.161-.403-.161-.644 0-.242.16-.403.322-.564l3.143-2.417c.16-.08.321-.161.482-.161.242 0 .484.08.645.322.16.161.16.403.16.644 0 .242-.16.403-.321.564l-3.142 2.417c-.162.161-.323.161-.484.161M43.93 12.18c-.484 0-.806-.404-.806-.806 0-.484.402-.806.805-.806h9.345c.484 0 .806.403.806.806 0 .483-.403.805-.806.805H43.93z" transform="translate(117) translate(22.941 .882)"/>
                <path fill="#274A59" d="M44.01 17.9c-.403 0-.725-.242-.806-.645-.08-.484.16-.886.564-1.048 1.047-.241 3.464-.886 4.35-1.208 1.53-.564 2.579-1.772 2.82-3.303.08-.403.403-.645.806-.645.322 0 .483.081.644.323.162.16.242.403.162.644-.403 2.095-1.773 3.706-3.867 4.512-.967.403-3.304.966-4.592 1.289.08.08 0 .08-.082.08" transform="translate(117) translate(22.941 .882)"/>
                <path fill="#274A59" d="M52.871 17.738c-.08 0-.241 0-.321-.08l-7.574-3.303c-.242-.08-.403-.242-.482-.484-.082-.241-.082-.483.08-.644l2.013-3.384c.162-.241.403-.403.726-.403.161 0 .322.081.403.081.161.08.322.322.403.483.08.242 0 .403-.081.645l-1.53 2.578 6.686 2.98c.402.162.644.645.402 1.129-.08.241-.402.402-.725.402M38.531 6.057c-.483 0-.886-.403-.886-.886 0-.484.403-.887.886-.887h3.787c.483 0 .886.403.886.887 0 .483-.403.886-.886.886H38.53z" transform="translate(117) translate(22.941 .882)"/>
                <path fill="#274A59" d="M40.545 18.141c-.483 0-.886-.403-.886-.886V1.545c0-.483.403-.886.886-.886.485 0 .887.403.887.886v15.71c0 .483-.402.886-.887.886" transform="translate(117) translate(22.941 .882)"/>
                <path fill="#274A59" d="M42.56 10.004c-.322 0-.565-.16-.725-.403l-1.854-2.578c-.16-.16-.16-.483-.16-.725.08-.241.16-.483.403-.564.16-.08.321-.16.563-.16.322 0 .564.16.725.402l1.853 2.578c.161.242.161.484.161.725-.08.242-.161.484-.403.564-.241.08-.402.161-.564.161" transform="translate(117) translate(22.941 .882)"/>
                <path fill="#274A59" d="M37.967 13.388c-.16 0-.242 0-.321-.08-.484-.162-.726-.726-.484-1.21l2.416-5.88c.162-.323.485-.564.887-.564.162 0 .241 0 .322.08.242.08.403.242.484.484.08.241.08.483 0 .725l-2.417 5.88c-.162.323-.484.565-.887.565" transform="translate(117) translate(22.941 .882)"/>
            </g>
        </g>
        <g fill="#2E7EEE">
            <path d="M93.099 27.458c.565 0 1.049-.242 1.453-.646.402-.402.564-.968.483-1.533.08-.564-.08-1.13-.483-1.532-.404-.403-.888-.645-1.453-.645-.564 0-1.13.242-1.452.645-.403.403-.565.968-.565 1.532-.08.565.162 1.13.484 1.533.485.484.969.646 1.533.646zm0-4.68c2.017 0 3.63 1.13 3.63 2.583 0 1.451-1.613 2.58-3.63 2.58s-3.71-1.129-3.71-2.58c0-1.453 1.773-2.583 3.71-2.583zm-9.036 3.147h2.583l-1.373-2.178-1.21 2.178zm2.42-3.147l3.066 5.164h-1.694l-.887-1.452H83.82l-.887 1.452h-.807l2.986-5.164h1.37zm-6.937 5.164h1.694v-5.164h-1.694v5.164zm-25.171-2.017h2.582l-1.371-2.178-1.211 2.178zm2.42-3.147l3.066 5.164h-1.694l-.888-1.452h-3.146l-.888 1.452h-.887l2.985-5.164h1.452zm9.843 4.115v-4.195h.887v5.163h-1.694l-4.034-4.357v4.357h-.887v-5.163h1.694l4.034 4.195zm-19.12-4.115v4.6h3.79v.564h-5.485v-5.164h1.695zM78.658.27v2.904h3.389v1.372h-3.389v14.683h-2.582V4.466h-3.468V3.174h3.468V.27h2.582zm12.908 2.986v2.5h5.163v1.372h-5.001l5.001 3.227v1.371l-1.613-.968v8.39h-2.663V9.225l-.242-.08-1.935-1.372-1.614 1.049-.403.323-1.775 10.084h-2.582l1.613-8.551-1.935 1.371v-1.371l5.243-3.47H83.58V5.837h5.082V3.256h-4.84V1.965h12.585v1.29h-4.841zm-12.02 15.973h2.5V5.433h-2.5V19.23zm-6.857 0h2.582V5.433h-2.582V19.23zM49.939 5.11V3.336h-4.52V1.965h4.52V.27h3.468v1.695h9.278V.27h3.468v1.695h4.438v1.371h-4.438v1.775h-3.468V3.336h-9.36v1.775h-3.387zm2.339 6.938h3.468V5.837h-3.468v6.212zm-5.164-.807h3.47v-4.68h-3.47v4.68zm11.133-.08v-1.21l11.214.726v1.29l-11.214-.806zm11.214-4.034v1.048L58.247 9.548V5.999h3.47v2.016l7.744-.887zm-6.373 10.73h3.065v-3.631h-3.065v3.63zm-6.293 0h3.147v-3.631h-3.147v3.63zm-6.534 0h3.146v-3.631h-3.146v3.63zm18.958-4.921v5.001h1.372v1.29H45.42v-1.37h1.371v-5.003H69.22v.082zM76.4 26.57c.242-.403.323-.806.323-1.29.08-.565-.08-1.13-.484-1.533-.404-.403-.887-.645-1.452-.645s-1.13.242-1.533.645c-.404.403-.564.968-.484 1.532-.08.565.162 1.13.484 1.533.404.404.968.646 1.452.646.485 0 .887-.162 1.21-.484l-.403-.242.564-.322.323.16zm.404.968c-.565.243-1.21.404-2.017.404-1.855 0-3.712-1.13-3.712-2.581 0-1.453 1.372-2.583 3.712-2.583 1.855 0 3.63 1.13 3.63 2.583 0 .725-.403 1.451-1.048 1.855l1.048.726h-1.048l-.565-.404zM18.959 1.239c-1.21.645-2.34 1.451-3.308 2.42-.16.242-.403.484-.565.645-4.84.645-8.47 4.84-8.47 9.68H0C0 9.388 2.26 5.112 6.131 2.53 10.004-.053 14.683-.455 18.96 1.239zm20.41 15.892c-.08.485-.242 1.05-.403 1.533h-1.775c.242-.484.484-1.048.646-1.533h1.532zm-17.91 3.792h-7.582c-.324-.484-.565-1.048-.807-1.533h7.098c.404.565.888 1.049 1.292 1.533zM19.12 17.13c.162.565.404 1.05.645 1.533h-6.937c-.162-.484-.324-1.048-.485-1.533h6.777zm6.777 10.73c-1.856 0-3.63-.322-5.325-1.049h10.569c-1.614.727-3.47 1.05-5.244 1.05zm9.6-6.938c.484-.484.887-.968 1.21-1.533h1.937c-.243.565-.485 1.049-.807 1.533h-2.34zm-2.26 1.775c.566-.242 1.05-.646 1.534-.968h2.662l-.726.968h-3.47zm-5.969-5.567c-.08.565-.242 1.05-.484 1.533H25.09c.242-.484.484-1.048.645-1.533h1.533zm-1.533 3.792h-2.339c.484-.484.888-.968 1.29-1.533h1.856c-.242.565-.484 1.049-.807 1.533zm-15.57.726c.484.403.968.726 1.533.968H2.985l-.726-.968h7.906zm-2.017-2.26c.404.566.806 1.05 1.21 1.534H1.694c-.322-.484-.564-1.048-.806-1.533h7.26zm-1.13-2.258c.162.565.404 1.05.646 1.533H.726c-.161-.484-.322-1.048-.484-1.533H7.02zm6.777 10.73c-1.855 0-3.63-.322-5.324-1.049h10.65c-1.695.727-3.55 1.05-5.326 1.05zm3.63-24.686c.324-.243.565-.485.888-.727.404-.161.646-.403 1.05-.564l.483-.243c4.276-2.096 9.359-1.774 13.392.727 4.034 2.5 6.534 6.937 6.534 11.698h-1.37c0-5.405-4.437-9.843-9.843-9.843-5.405 0-9.842 4.438-9.842 9.843H12.1c0-3.712 1.452-7.26 4.115-9.843.322-.403.806-.726 1.21-1.048zm5.084 3.146c.564-.484 1.21-.807 1.855-1.129 2.097 2.5 3.227 5.647 3.227 8.874H26.3c0-3.066-1.453-5.89-3.792-7.745zm-4.922 18.797h16.62c-.485.404-1.05.726-1.614.968H7.02c-.565-.322-1.05-.645-1.614-.968h12.182zm-.968-.726H4.518l-.968-.968h9.681c.968.323 1.936.484 2.904.484l-.484-.484h9.68c1.05.323 2.098.484 3.147.484 1.05 0 2.179-.161 3.146-.484h4.357l-.968.968H16.619c.08 0 .08 0 0 0l-.242-.242.242.242zm5.89-2.582c.08 0 .16-.08.16-.161h2.663l-.726.968h-9.52l-.726-.968h7.907l.242.161c-.082 0 0 0 0 0z" transform="translate(0 1)"/>
        </g>
        <path fill="#C6C6C6" d="M107.056 30L107.857 30 107.857 0 107.056 0z"/>
    </g>
</svg>
